# xmcd
#
# Track frame offsets: 
#        150
#        19008
#        48239
#        67857
#        101999
#        118783
#        142619
#        159599
#        178342
#        199514
#        218871
#        232428
#        250727
#        268686
#        283759
#
# Disc length: 4037 seconds
#
# Revision: 2
# Processed by: cddbd v1.5.2PL0 Copyright (c) Steve Scherf et al.
# Submitted via: ExactAudioCopy v0.99pb5
#
DISCID=de0fc30f
DTITLE=Michael Terry - Too Bad
DYEAR=2011
DGENRE=Blues
TTITLE0=Why You Wanna Scream On Me
TTITLE1=Blame It On My Day Job
TTITLE2=Leavin' Missouri
TTITLE3=Procrastination
TTITLE4=Mama Done Raised A Fool
TTITLE5=Here To Stay
TTITLE6=Hard To Find My Way
TTITLE7=She My Baby
TTITLE8=For My Love Of You
TTITLE9=Ganktified
TTITLE10=Found Work In Texas
TTITLE11=Too Bad
TTITLE12=Takin' Names
TTITLE13=One Thing That's Changed
TTITLE14=Trampe Stampe
EXTD=
EXTT0=
EXTT1=
EXTT2=
EXTT3=
EXTT4=
EXTT5=
EXTT6=
EXTT7=
EXTT8=
EXTT9=
EXTT10=
EXTT11=
EXTT12=
EXTT13=
EXTT14=
PLAYORDER=
